PathFileType	4	(X/Y/Z)	C:\Users\Gabre\Documents\2-Sophmore\Autumn\ME 191\Nick_10292018\Nick_10292018\Upper Extremity\shoulder_flexion.trc
DataRate	CameraRate	NumFrames	NumMarkers	Units	OrigDataRate	OrigDataStartFrame	OrigNumFrames
100.00	100.00	       17	21	mm	100.00	544	       621
Frame#	Time	Back_IMU_O			Back_IMU_D			Back_IMU_X			Back_IMU_Y			C7			R.Acromion			L.Acromion			R.Elbow			R.Radius			R.Ulna			R.Hand			Humerus_IMU_O			Humerus_IMU_D			Humerus_IMU_X			Humerus_IMU_Y			Forearm_IMU_O			Forearm_IMU_D			Forearm_IMU_X			Forearm_IMU_Y			Hand_IMU_O			Scapula_IMU_O			
		X1	Y1	Z1	X2	Y2	Z2	X3	Y3	Z3	X4	Y4	Z4	X5	Y5	Z5	X6	Y6	Z6	X7	Y7	Z7	X8	Y8	Z8	X9	Y9	Z9	X10	Y10	Z10	X11	Y11	Z11	X12	Y12	Z12	X13	Y13	Z13	X14	Y14	Z14	X15	Y15	Z15	X16	Y16	Z16	X17	Y17	Z17	X18	Y18	Z18	X19	Y19	Z19	X20	Y20	Z20	X21	Y21	Z21	

544	5.430	-888.53802	445.82419	1019.69891	-910.01794	524.43396	913.94000	-888.21326	531.61469	1014.38068	-910.16901	439.98932	919.26099	-876.65356	487.75168	1035.13306	-779.41193	325.92337	1009.49158	-792.38116	666.04126	990.63428	-753.93158	171.23883	667.15594	-508.03198	272.32141	564.92145	-532.29205	228.63092	527.31989	-423.70175	288.67908	486.74799	-710.15308	245.65594	865.19208	-805.62366	189.05090	805.68872	-811.68884	205.52509	871.24359	-706.46228	228.78105	801.72028	-560.47034	246.44171	617.86414	-564.57068	206.08229	516.89948	-600.56976	195.63252	544.14386	-520.29730	257.24063	592.47784	-457.38193	250.05002	509.71353	-822.40735	298.27576	1011.95587	
545	5.440	-888.24609	445.41016	1019.79938	-909.75140	524.20538	914.11530	-887.84180	531.38586	1014.50275	-909.98755	439.83426	919.24316	-876.21326	487.56763	1035.13489	-778.67487	325.37366	1008.70215	-791.87457	665.82935	990.82184	-756.96368	173.14612	665.14069	-513.58044	270.82095	554.03601	-539.36676	227.22870	517.67151	-432.05847	285.31653	472.61661	-710.59814	246.50764	863.46368	-805.98901	189.23369	804.68463	-811.43677	204.31599	870.64453	-708.28650	229.97299	800.10040	-563.82971	246.14464	608.90271	-572.79645	205.45181	507.86325	-608.00653	194.69994	536.74683	-524.53961	256.07236	582.33990	-465.34201	247.34587	497.03317	-821.63757	297.50958	1011.64185	
546	5.450	-887.92633	445.16272	1019.92987	-909.55005	524.16241	914.22247	-887.62054	531.24445	1014.55072	-909.57874	439.73300	919.32385	-875.76202	487.36343	1035.24219	-778.11652	324.77322	1007.52820	-791.37506	665.75305	990.81622	-760.08875	175.26198	663.52972	-518.88800	269.41153	543.32715	-548.25183	225.94141	507.50803	-440.58557	282.04257	458.94165	-710.80646	247.22011	861.66278	-806.96918	189.04706	804.16180	-811.42682	204.26517	869.97998	-708.89600	231.19690	798.40491	-568.11926	245.42836	600.27948	-581.39063	204.43257	499.83383	-614.07263	194.58081	530.26288	-530.05139	254.88989	571.63342	-473.32800	244.81218	484.98105	-821.20129	297.25314	1011.40442	
547	5.460	-887.56995	445.11887	1019.97900	-908.94971	524.05536	914.19995	-887.23181	531.04260	1014.82452	-909.24023	439.61050	919.40839	-875.47833	487.31070	1035.29175	-777.31415	324.41501	1007.22906	-791.23315	665.36932	991.13806	-762.45648	177.36566	661.71057	-524.47638	267.80383	533.55701	-554.98737	224.50323	499.13058	-448.79559	279.08774	446.57712	-711.79584	247.99432	860.20282	-807.81488	189.12650	803.42157	-811.66101	204.11600	869.41559	-709.84106	232.60258	796.74780	-572.47412	244.71394	591.16522	-588.19751	203.11819	492.19064	-622.18427	194.39127	523.14465	-534.39240	253.85085	562.75092	-481.29312	242.44122	473.36514	-820.42798	296.46451	1011.02216	
548	5.470	-887.37433	444.97510	1020.13788	-908.75531	524.03613	914.26129	-886.89215	530.96423	1014.92755	-909.09192	439.56363	919.49377	-874.96649	487.16824	1035.41125	-777.13379	323.82010	1004.96814	-790.76300	665.21667	991.14502	-764.84296	179.33104	659.96582	-529.83008	266.55212	524.09375	-561.36298	223.32278	490.93448	-457.27057	276.22528	433.95203	-712.01038	248.92842	858.64661	-808.57587	189.40794	802.35730	-811.82257	203.91258	868.57678	-711.86548	233.50644	794.76776	-574.13495	244.16026	584.34894	-596.90527	202.50568	485.11127	-628.65021	194.19055	517.20343	-536.51849	252.68475	554.34625	-489.16196	240.20474	462.53888	-820.04260	296.28406	1010.87671	
549	5.480	-886.93481	444.84360	1020.05902	-908.60913	523.88000	914.37561	-886.51483	530.78870	1015.02667	-908.81665	439.47324	919.56348	-874.57294	487.00031	1035.50220	-776.45905	323.26508	1004.38220	-790.26233	664.99597	991.35522	-767.39557	181.25919	658.49432	-535.13531	264.86942	514.78729	-569.15289	221.84169	482.46301	-466.40891	273.37018	421.66708	-712.48279	249.36360	857.19318	-808.89923	190.09126	801.37756	-811.57819	204.03979	867.58868	-715.01007	235.29222	792.55048	-580.41071	243.67903	575.71368	-604.62720	201.43929	477.91943	-635.50366	193.34598	511.58542	-540.29053	251.75584	545.78009	-497.01102	237.89603	451.86829	-819.70715	296.14734	1010.63715	
550	5.490	-886.23669	444.49005	1020.04010	-908.25952	523.68268	914.50757	-885.97247	530.46716	1014.95020	-908.59784	439.29892	919.70197	-874.17682	486.77075	1035.59766	-774.88666	322.92017	1005.21143	-790.15851	664.48938	992.02948	-769.02002	183.09238	656.69257	-541.00897	263.45502	505.64142	-575.61218	220.72609	475.48648	-474.89401	270.58463	410.49683	-714.17719	247.32214	856.56195	-809.01605	191.46034	800.10254	-811.18280	204.24098	866.54803	-716.38397	235.95016	790.79755	-579.42535	242.53622	569.91302	-610.45795	200.58411	472.32547	-642.21167	193.08481	506.70865	-550.77979	249.49474	534.21643	-504.46811	235.55615	442.22433	-818.89410	295.66721	1010.14819	
551	5.500	-885.74200	444.35855	1019.93903	-908.04797	523.58911	914.80499	-885.51105	530.25970	1015.10016	-908.35577	439.20459	919.71027	-874.00055	486.76581	1035.73450	-773.94275	322.37891	1007.08905	-789.27740	664.43347	992.14520	-770.95691	184.95636	655.27502	-544.97473	262.27740	497.63748	-582.08643	219.38853	468.51666	-483.30536	267.98285	399.85114	-714.23944	247.56131	854.75238	-809.73737	191.40659	799.32935	-811.56744	204.69579	865.68585	-717.42871	236.67642	789.16095	-583.62756	241.64760	562.55585	-615.77478	199.62488	466.52029	-648.06854	192.32126	501.00613	-555.36676	248.26497	526.09192	-512.27234	233.53941	432.42984	-817.79498	295.13861	1009.85223	
552	5.510	-885.60962	444.34753	1020.04779	-907.70062	523.59497	914.93738	-885.37878	530.10614	1015.33307	-908.16309	439.07498	919.79956	-873.57471	486.33170	1035.87170	-774.01300	321.67871	1003.31653	-789.24780	664.32788	992.32092	-772.50494	186.47739	653.58899	-551.11816	260.19730	489.40143	-588.99640	217.97055	461.69846	-491.44730	265.25662	389.69006	-712.63342	250.12814	852.58826	-810.48444	192.46684	798.23462	-811.28357	205.31653	864.60718	-716.94067	237.67415	787.82782	-586.74756	241.41380	556.15552	-625.02905	198.17790	460.47824	-654.66473	191.89008	496.61230	-559.52374	246.90570	518.48962	-519.64246	231.29965	423.55460	-817.49469	294.80722	1009.69208	
553	5.520	-885.28900	444.22955	1020.29498	-907.56818	523.50323	915.00684	-885.17596	529.91919	1015.40692	-907.99414	438.93799	919.91895	-873.21649	486.23734	1035.80066	-773.16083	321.22983	1003.03461	-788.77386	664.20471	992.41461	-773.47784	187.91139	652.16357	-555.95422	258.29245	481.73880	-595.70227	216.44615	455.15158	-500.28391	262.85754	379.85870	-711.94110	250.93134	851.43152	-810.57074	193.38582	797.11261	-810.52942	206.07376	863.40942	-716.91345	238.31740	786.73047	-590.19611	240.41087	549.15845	-631.78461	196.70087	454.80515	-658.58447	190.99733	492.40881	-564.32233	245.52759	511.13895	-527.17572	229.13307	414.75250	-816.61804	294.20786	1009.02618	
554	5.530	-885.08270	444.10349	1020.32123	-907.29449	523.31256	915.00378	-884.91779	529.86737	1015.61310	-907.74670	438.88043	919.89423	-872.87311	485.94550	1035.88806	-772.99933	320.49860	1001.31177	-788.22095	664.10321	992.53229	-774.52203	189.37608	651.17780	-561.04706	256.41782	474.21552	-602.17725	214.87941	449.06586	-508.03830	260.14346	370.72357	-711.60101	251.45488	850.24445	-810.17261	194.10536	795.84442	-810.76544	205.90851	862.43640	-717.23450	238.97369	785.01147	-593.26312	239.41129	542.92297	-637.86896	195.26166	450.12106	-662.67554	190.34258	488.96112	-567.93427	243.83708	504.32126	-534.59753	226.88220	406.66788	-815.79919	293.66199	1008.59686	
555	5.540	-884.72919	443.75803	1020.32574	-907.19836	523.22137	915.10858	-884.70874	529.71729	1015.64618	-907.44446	438.83505	920.06757	-872.80524	485.97058	1035.97253	-771.76758	320.10333	1003.49762	-787.74518	664.01086	992.66040	-775.54437	190.48740	649.88782	-566.60156	254.17207	467.16769	-607.76019	213.32483	443.16513	-515.88232	257.36493	362.40506	-712.88190	249.71568	849.60272	-809.88586	194.53682	794.48578	-810.32703	206.26741	861.16559	-716.66095	239.76100	784.05035	-596.41888	238.17169	537.02429	-644.22241	194.22498	445.28696	-668.60254	189.43643	485.01413	-571.52954	241.64949	497.58865	-541.72266	224.47751	399.10944	-815.44238	293.27652	1008.13416	
556	5.550	-884.51135	443.71429	1020.43036	-906.89703	523.09662	915.14447	-884.43854	529.63806	1015.76569	-907.07849	438.71277	920.09070	-872.51849	485.92789	1036.01038	-771.26984	319.63028	1002.80408	-787.28040	663.90082	992.81482	-776.79468	191.91330	649.37500	-571.70715	252.21954	460.52612	-614.88293	211.53114	437.30042	-523.88373	254.57626	354.37744	-711.98419	252.23643	847.83936	-809.99280	194.85480	793.67365	-809.83765	206.47588	860.36542	-717.33179	240.60229	782.45038	-599.52570	236.71274	531.03625	-650.64508	193.21490	440.74121	-672.30188	188.96669	481.68567	-575.45496	239.91187	490.90796	-549.16321	221.90401	391.40985	-814.73505	292.92303	1007.72772	
557	5.560	-884.32605	443.72827	1020.59979	-906.84875	523.07727	915.39185	-884.12518	529.56311	1015.83698	-906.78802	438.73926	920.12347	-872.26996	485.79736	1036.08679	-770.88000	319.11896	1001.70117	-786.94415	663.88159	992.91241	-777.17957	192.82507	647.96973	-574.91217	249.75996	454.83237	-619.47955	210.03242	432.77209	-531.36224	251.63977	346.73935	-711.36084	253.06490	846.86292	-810.02295	194.89580	792.48877	-809.76379	206.04138	859.27496	-717.58514	241.50282	781.20245	-602.44678	234.64059	525.21289	-657.24823	192.48451	436.57358	-678.28394	188.20970	477.85760	-578.92175	237.66913	485.11487	-555.63434	219.27744	384.71213	-814.44568	292.65543	1007.25140	
558	5.570	-883.75409	443.56537	1020.45703	-906.66443	523.09076	915.49884	-883.68372	529.45740	1015.74695	-906.76801	438.73874	920.12512	-872.00891	485.67429	1036.07385	-769.64301	318.65915	1002.79077	-786.48041	663.78259	992.99799	-777.16443	193.62418	646.66858	-580.92920	247.17667	448.29242	-625.56482	208.24120	428.02939	-538.59106	248.72539	339.63977	-711.36090	253.42545	845.50183	-809.23596	195.17345	791.42517	-809.40796	206.14558	858.36456	-717.23120	241.93613	780.28082	-606.08838	232.98260	520.05670	-662.51990	191.06606	433.04166	-684.85309	187.95122	473.84543	-583.01624	235.13882	478.85904	-563.37756	216.50584	377.80618	-813.66766	292.15552	1006.50281	
559	5.580	-883.61316	443.51935	1020.44318	-906.54498	523.00439	915.58417	-883.40771	529.30493	1015.80554	-906.66663	438.66779	920.12469	-871.59625	485.51938	1036.00916	-769.50671	318.15338	1000.16168	-786.16925	663.72412	993.01202	-778.47693	194.79463	646.29901	-585.43866	244.61977	442.42969	-631.15851	206.33890	423.68039	-546.00751	245.72754	332.92627	-711.35840	253.93082	844.86829	-808.69238	195.50784	790.06708	-809.17773	205.52501	857.57697	-717.28223	242.90929	779.16077	-608.32922	231.28224	514.86053	-668.03400	190.22592	429.93256	-689.18494	187.23535	470.98920	-586.96600	232.68349	473.42825	-571.31158	214.02811	371.59512	-813.43378	292.01053	1006.19086	
560	5.590	-883.31775	443.42508	1020.47589	-906.25018	522.96027	915.61548	-883.19788	529.24109	1015.78424	-906.55310	438.52002	920.17029	-871.38763	485.44272	1035.97803	-768.67773	317.74405	1000.11615	-785.94177	663.59796	993.04596	-778.48578	196.34155	645.05042	-589.91589	242.10480	437.04053	-636.24902	204.79671	419.29886	-552.60303	242.58012	327.10263	-711.15424	254.41945	843.67175	-808.83917	195.44936	789.47717	-808.39050	206.11237	856.20850	-715.96722	243.10307	778.71710	-611.64996	229.74289	509.75916	-675.06091	188.97630	426.08255	-694.88330	186.47186	468.04028	-591.10492	230.22540	467.58533	-577.47900	211.32663	365.94122	-813.14362	291.48444	1005.86694	
